<?xml version="1.0" encoding="utf-8" standalone="no"?>
<!DOCTYPE svg PUBLIC "-//W3C//DTD SVG 1.1//EN"
        "http://www.w3.org/Graphics/SVG/1.1/DTD/svg11.dtd">
<svg xmlns:xlink="http://www.w3.org/1999/xlink" width="720pt" height="432pt" viewBox="0 0 720 432" xmlns="http://www.w3.org/2000/svg" version="1.1">
    <metadata>
        <rdf:RDF xmlns:dc="http://purl.org/dc/elements/1.1/" xmlns:cc="http://creativecommons.org/ns#" xmlns:rdf="http://www.w3.org/1999/02/22-rdf-syntax-ns#">
            <cc:Work>
                <dc:type rdf:resource="http://purl.org/dc/dcmitype/StillImage"/>
                <dc:date>2024-03-30T22:04:26.970707</dc:date>
                <dc:format>image/svg+xml</dc:format>
                <dc:creator>
                    <cc:Agent>
                        <dc:title>Matplotlib v3.6.3, https://matplotlib.org/</dc:title>
                    </cc:Agent>
                </dc:creator>
            </cc:Work>
        </rdf:RDF>
    </metadata>
    <defs>
        <style type="text/css">*{stroke-linejoin: round; stroke-linecap: butt}</style>
    </defs>
    <g id="figure_1">
        <g id="patch_1">
            <path d="M 0 432
L 720 432
L 720 0
L 0 0
z
" style="fill: #ffffff"/>
        </g>
        <g id="axes_1">
            <g id="patch_2">
                <path d="M 90 384.48
L 648 384.48
L 648 51.84
L 90 51.84
z
" style="fill: #ffffff"/>
            </g>
            <g id="matplotlib.axis_1">
                <g id="xtick_1">
                    <g id="line2d_1">
                        <path d="M 90 384.48
L 90 51.84
" clip-path="url(#p2e626c29a4)" style="fill: none; stroke-dasharray: 2.22,0.96; stroke-dashoffset: 0; stroke: #b0b0b0; stroke-opacity: 0.7; stroke-width: 0.6"/>
                    </g>
                    <g id="line2d_2">
                        <defs>
                            <path id="m60ef835067" d="M 0 0
L 0 -3.5
" style="stroke: #1a1a1a; stroke-width: 0.8"/>
                        </defs>
                        <g>
                            <use xlink:href="#m60ef835067" x="90" y="384.48" style="fill: #1a1a1a; stroke: #1a1a1a; stroke-width: 0.8"/>
                        </g>
                    </g>
                    <g id="text_1">
                        <!-- 0.0 -->
                        <g style="fill: #1a1a1a" transform="translate(80.458125 397.098125) scale(0.12 -0.12)">
                            <defs>
                                <path id="DejaVuSans-30" d="M 2034 4250
Q 1547 4250 1301 3770
Q 1056 3291 1056 2328
Q 1056 1369 1301 889
Q 1547 409 2034 409
Q 2525 409 2770 889
Q 3016 1369 3016 2328
Q 3016 3291 2770 3770
Q 2525 4250 2034 4250
z
M 2034 4750
Q 2819 4750 3233 4129
Q 3647 3509 3647 2328
Q 3647 1150 3233 529
Q 2819 -91 2034 -91
Q 1250 -91 836 529
Q 422 1150 422 2328
Q 422 3509 836 4129
Q 1250 4750 2034 4750
z
" transform="scale(0.015625)"/>
                                <path id="DejaVuSans-2e" d="M 684 794
L 1344 794
L 1344 0
L 684 0
L 684 794
z
" transform="scale(0.015625)"/>
                            </defs>
                            <use xlink:href="#DejaVuSans-30"/>
                            <use xlink:href="#DejaVuSans-2e" x="63.623047"/>
                            <use xlink:href="#DejaVuSans-30" x="95.410156"/>
                        </g>
                    </g>
                </g>
                <g id="xtick_2">
                    <g id="line2d_3">
                        <path d="M 201.6 384.48
L 201.6 51.84
" clip-path="url(#p2e626c29a4)" style="fill: none; stroke-dasharray: 2.22,0.96; stroke-dashoffset: 0; stroke: #b0b0b0; stroke-opacity: 0.7; stroke-width: 0.6"/>
                    </g>
                    <g id="line2d_4">
                        <g>
                            <use xlink:href="#m60ef835067" x="201.6" y="384.48" style="fill: #1a1a1a; stroke: #1a1a1a; stroke-width: 0.8"/>
                        </g>
                    </g>
                    <g id="text_2">
                        <!-- 0.2 -->
                        <g style="fill: #1a1a1a" transform="translate(192.058125 397.098125) scale(0.12 -0.12)">
                            <defs>
                                <path id="DejaVuSans-32" d="M 1228 531
L 3431 531
L 3431 0
L 469 0
L 469 531
Q 828 903 1448 1529
Q 2069 2156 2228 2338
Q 2531 2678 2651 2914
Q 2772 3150 2772 3378
Q 2772 3750 2511 3984
Q 2250 4219 1831 4219
Q 1534 4219 1204 4116
Q 875 4013 500 3803
L 500 4441
Q 881 4594 1212 4672
Q 1544 4750 1819 4750
Q 2544 4750 2975 4387
Q 3406 4025 3406 3419
Q 3406 3131 3298 2873
Q 3191 2616 2906 2266
Q 2828 2175 2409 1742
Q 1991 1309 1228 531
z
" transform="scale(0.015625)"/>
                            </defs>
                            <use xlink:href="#DejaVuSans-30"/>
                            <use xlink:href="#DejaVuSans-2e" x="63.623047"/>
                            <use xlink:href="#DejaVuSans-32" x="95.410156"/>
                        </g>
                    </g>
                </g>
                <g id="xtick_3">
                    <g id="line2d_5">
                        <path d="M 313.2 384.48
L 313.2 51.84
" clip-path="url(#p2e626c29a4)" style="fill: none; stroke-dasharray: 2.22,0.96; stroke-dashoffset: 0; stroke: #b0b0b0; stroke-opacity: 0.7; stroke-width: 0.6"/>
                    </g>
                    <g id="line2d_6">
                        <g>
                            <use xlink:href="#m60ef835067" x="313.2" y="384.48" style="fill: #1a1a1a; stroke: #1a1a1a; stroke-width: 0.8"/>
                        </g>
                    </g>
                    <g id="text_3">
                        <!-- 0.4 -->
                        <g style="fill: #1a1a1a" transform="translate(303.658125 397.098125) scale(0.12 -0.12)">
                            <defs>
                                <path id="DejaVuSans-34" d="M 2419 4116
L 825 1625
L 2419 1625
L 2419 4116
z
M 2253 4666
L 3047 4666
L 3047 1625
L 3713 1625
L 3713 1100
L 3047 1100
L 3047 0
L 2419 0
L 2419 1100
L 313 1100
L 313 1709
L 2253 4666
z
" transform="scale(0.015625)"/>
                            </defs>
                            <use xlink:href="#DejaVuSans-30"/>
                            <use xlink:href="#DejaVuSans-2e" x="63.623047"/>
                            <use xlink:href="#DejaVuSans-34" x="95.410156"/>
                        </g>
                    </g>
                </g>
                <g id="xtick_4">
                    <g id="line2d_7">
                        <path d="M 424.8 384.48
L 424.8 51.84
" clip-path="url(#p2e626c29a4)" style="fill: none; stroke-dasharray: 2.22,0.96; stroke-dashoffset: 0; stroke: #b0b0b0; stroke-opacity: 0.7; stroke-width: 0.6"/>
                    </g>
                    <g id="line2d_8">
                        <g>
                            <use xlink:href="#m60ef835067" x="424.8" y="384.48" style="fill: #1a1a1a; stroke: #1a1a1a; stroke-width: 0.8"/>
                        </g>
                    </g>
                    <g id="text_4">
                        <!-- 0.6 -->
                        <g style="fill: #1a1a1a" transform="translate(415.258125 397.098125) scale(0.12 -0.12)">
                            <defs>
                                <path id="DejaVuSans-36" d="M 2113 2584
Q 1688 2584 1439 2293
Q 1191 2003 1191 1497
Q 1191 994 1439 701
Q 1688 409 2113 409
Q 2538 409 2786 701
Q 3034 994 3034 1497
Q 3034 2003 2786 2293
Q 2538 2584 2113 2584
z
M 3366 4563
L 3366 3988
Q 3128 4100 2886 4159
Q 2644 4219 2406 4219
Q 1781 4219 1451 3797
Q 1122 3375 1075 2522
Q 1259 2794 1537 2939
Q 1816 3084 2150 3084
Q 2853 3084 3261 2657
Q 3669 2231 3669 1497
Q 3669 778 3244 343
Q 2819 -91 2113 -91
Q 1303 -91 875 529
Q 447 1150 447 2328
Q 447 3434 972 4092
Q 1497 4750 2381 4750
Q 2619 4750 2861 4703
Q 3103 4656 3366 4563
z
" transform="scale(0.015625)"/>
                            </defs>
                            <use xlink:href="#DejaVuSans-30"/>
                            <use xlink:href="#DejaVuSans-2e" x="63.623047"/>
                            <use xlink:href="#DejaVuSans-36" x="95.410156"/>
                        </g>
                    </g>
                </g>
                <g id="xtick_5">
                    <g id="line2d_9">
                        <path d="M 536.4 384.48
L 536.4 51.84
" clip-path="url(#p2e626c29a4)" style="fill: none; stroke-dasharray: 2.22,0.96; stroke-dashoffset: 0; stroke: #b0b0b0; stroke-opacity: 0.7; stroke-width: 0.6"/>
                    </g>
                    <g id="line2d_10">
                        <g>
                            <use xlink:href="#m60ef835067" x="536.4" y="384.48" style="fill: #1a1a1a; stroke: #1a1a1a; stroke-width: 0.8"/>
                        </g>
                    </g>
                    <g id="text_5">
                        <!-- 0.8 -->
                        <g style="fill: #1a1a1a" transform="translate(526.858125 397.098125) scale(0.12 -0.12)">
                            <defs>
                                <path id="DejaVuSans-38" d="M 2034 2216
Q 1584 2216 1326 1975
Q 1069 1734 1069 1313
Q 1069 891 1326 650
Q 1584 409 2034 409
Q 2484 409 2743 651
Q 3003 894 3003 1313
Q 3003 1734 2745 1975
Q 2488 2216 2034 2216
z
M 1403 2484
Q 997 2584 770 2862
Q 544 3141 544 3541
Q 544 4100 942 4425
Q 1341 4750 2034 4750
Q 2731 4750 3128 4425
Q 3525 4100 3525 3541
Q 3525 3141 3298 2862
Q 3072 2584 2669 2484
Q 3125 2378 3379 2068
Q 3634 1759 3634 1313
Q 3634 634 3220 271
Q 2806 -91 2034 -91
Q 1263 -91 848 271
Q 434 634 434 1313
Q 434 1759 690 2068
Q 947 2378 1403 2484
z
M 1172 3481
Q 1172 3119 1398 2916
Q 1625 2713 2034 2713
Q 2441 2713 2670 2916
Q 2900 3119 2900 3481
Q 2900 3844 2670 4047
Q 2441 4250 2034 4250
Q 1625 4250 1398 4047
Q 1172 3844 1172 3481
z
" transform="scale(0.015625)"/>
                            </defs>
                            <use xlink:href="#DejaVuSans-30"/>
                            <use xlink:href="#DejaVuSans-2e" x="63.623047"/>
                            <use xlink:href="#DejaVuSans-38" x="95.410156"/>
                        </g>
                    </g>
                </g>
                <g id="xtick_6">
                    <g id="line2d_11">
                        <path d="M 648 384.48
L 648 51.84
" clip-path="url(#p2e626c29a4)" style="fill: none; stroke-dasharray: 2.22,0.96; stroke-dashoffset: 0; stroke: #b0b0b0; stroke-opacity: 0.7; stroke-width: 0.6"/>
                    </g>
                    <g id="line2d_12">
                        <g>
                            <use xlink:href="#m60ef835067" x="648" y="384.48" style="fill: #1a1a1a; stroke: #1a1a1a; stroke-width: 0.8"/>
                        </g>
                    </g>
                    <g id="text_6">
                        <!-- 1.0 -->
                        <g style="fill: #1a1a1a" transform="translate(638.458125 397.098125) scale(0.12 -0.12)">
                            <defs>
                                <path id="DejaVuSans-31" d="M 794 531
L 1825 531
L 1825 4091
L 703 3866
L 703 4441
L 1819 4666
L 2450 4666
L 2450 531
L 3481 531
L 3481 0
L 794 0
L 794 531
z
" transform="scale(0.015625)"/>
                            </defs>
                            <use xlink:href="#DejaVuSans-31"/>
                            <use xlink:href="#DejaVuSans-2e" x="63.623047"/>
                            <use xlink:href="#DejaVuSans-30" x="95.410156"/>
                        </g>
                    </g>
                </g>
                <g id="text_7">
                    <!-- X axis -->
                    <g style="fill: #1a1a1a" transform="translate(350.9625 412.711875) scale(0.12 -0.12)">
                        <defs>
                            <path id="DejaVuSans-58" d="M 403 4666
L 1081 4666
L 2241 2931
L 3406 4666
L 4084 4666
L 2584 2425
L 4184 0
L 3506 0
L 2194 1984
L 872 0
L 191 0
L 1856 2491
L 403 4666
z
" transform="scale(0.015625)"/>
                            <path id="DejaVuSans-20" transform="scale(0.015625)"/>
                            <path id="DejaVuSans-61" d="M 2194 1759
Q 1497 1759 1228 1600
Q 959 1441 959 1056
Q 959 750 1161 570
Q 1363 391 1709 391
Q 2188 391 2477 730
Q 2766 1069 2766 1631
L 2766 1759
L 2194 1759
z
M 3341 1997
L 3341 0
L 2766 0
L 2766 531
Q 2569 213 2275 61
Q 1981 -91 1556 -91
Q 1019 -91 701 211
Q 384 513 384 1019
Q 384 1609 779 1909
Q 1175 2209 1959 2209
L 2766 2209
L 2766 2266
Q 2766 2663 2505 2880
Q 2244 3097 1772 3097
Q 1472 3097 1187 3025
Q 903 2953 641 2809
L 641 3341
Q 956 3463 1253 3523
Q 1550 3584 1831 3584
Q 2591 3584 2966 3190
Q 3341 2797 3341 1997
z
" transform="scale(0.015625)"/>
                            <path id="DejaVuSans-78" d="M 3513 3500
L 2247 1797
L 3578 0
L 2900 0
L 1881 1375
L 863 0
L 184 0
L 1544 1831
L 300 3500
L 978 3500
L 1906 2253
L 2834 3500
L 3513 3500
z
" transform="scale(0.015625)"/>
                            <path id="DejaVuSans-69" d="M 603 3500
L 1178 3500
L 1178 0
L 603 0
L 603 3500
z
M 603 4863
L 1178 4863
L 1178 4134
L 603 4134
L 603 4863
z
" transform="scale(0.015625)"/>
                            <path id="DejaVuSans-73" d="M 2834 3397
L 2834 2853
Q 2591 2978 2328 3040
Q 2066 3103 1784 3103
Q 1356 3103 1142 2972
Q 928 2841 928 2578
Q 928 2378 1081 2264
Q 1234 2150 1697 2047
L 1894 2003
Q 2506 1872 2764 1633
Q 3022 1394 3022 966
Q 3022 478 2636 193
Q 2250 -91 1575 -91
Q 1294 -91 989 -36
Q 684 19 347 128
L 347 722
Q 666 556 975 473
Q 1284 391 1588 391
Q 1994 391 2212 530
Q 2431 669 2431 922
Q 2431 1156 2273 1281
Q 2116 1406 1581 1522
L 1381 1569
Q 847 1681 609 1914
Q 372 2147 372 2553
Q 372 3047 722 3315
Q 1072 3584 1716 3584
Q 2034 3584 2315 3537
Q 2597 3491 2834 3397
z
" transform="scale(0.015625)"/>
                        </defs>
                        <use xlink:href="#DejaVuSans-58"/>
                        <use xlink:href="#DejaVuSans-20" x="68.505859"/>
                        <use xlink:href="#DejaVuSans-61" x="100.292969"/>
                        <use xlink:href="#DejaVuSans-78" x="161.572266"/>
                        <use xlink:href="#DejaVuSans-69" x="220.751953"/>
                        <use xlink:href="#DejaVuSans-73" x="248.535156"/>
                    </g>
                </g>
            </g>
            <g id="matplotlib.axis_2">
                <g id="ytick_1">
                    <g id="line2d_13">
                        <path d="M 90 384.48
L 648 384.48
" clip-path="url(#p2e626c29a4)" style="fill: none; stroke-dasharray: 2.22,0.96; stroke-dashoffset: 0; stroke: #b0b0b0; stroke-opacity: 0.7; stroke-width: 0.6"/>
                    </g>
                    <g id="line2d_14">
                        <defs>
                            <path id="m4de5e2d326" d="M 0 0
L 3.5 0
" style="stroke: #1a1a1a; stroke-width: 0.8"/>
                        </defs>
                        <g>
                            <use xlink:href="#m4de5e2d326" x="90" y="384.48" style="fill: #1a1a1a; stroke: #1a1a1a; stroke-width: 0.8"/>
                        </g>
                    </g>
                    <g id="text_8">
                        <!-- 0.0 -->
                        <g style="fill: #1a1a1a" transform="translate(67.41625 389.039062) scale(0.12 -0.12)">
                            <use xlink:href="#DejaVuSans-30"/>
                            <use xlink:href="#DejaVuSans-2e" x="63.623047"/>
                            <use xlink:href="#DejaVuSans-30" x="95.410156"/>
                        </g>
                    </g>
                </g>
                <g id="ytick_2">
                    <g id="line2d_15">
                        <path d="M 90 317.952
L 648 317.952
" clip-path="url(#p2e626c29a4)" style="fill: none; stroke-dasharray: 2.22,0.96; stroke-dashoffset: 0; stroke: #b0b0b0; stroke-opacity: 0.7; stroke-width: 0.6"/>
                    </g>
                    <g id="line2d_16">
                        <g>
                            <use xlink:href="#m4de5e2d326" x="90" y="317.952" style="fill: #1a1a1a; stroke: #1a1a1a; stroke-width: 0.8"/>
                        </g>
                    </g>
                    <g id="text_9">
                        <!-- 0.2 -->
                        <g style="fill: #1a1a1a" transform="translate(67.41625 322.511062) scale(0.12 -0.12)">
                            <use xlink:href="#DejaVuSans-30"/>
                            <use xlink:href="#DejaVuSans-2e" x="63.623047"/>
                            <use xlink:href="#DejaVuSans-32" x="95.410156"/>
                        </g>
                    </g>
                </g>
                <g id="ytick_3">
                    <g id="line2d_17">
                        <path d="M 90 251.424
L 648 251.424
" clip-path="url(#p2e626c29a4)" style="fill: none; stroke-dasharray: 2.22,0.96; stroke-dashoffset: 0; stroke: #b0b0b0; stroke-opacity: 0.7; stroke-width: 0.6"/>
                    </g>
                    <g id="line2d_18">
                        <g>
                            <use xlink:href="#m4de5e2d326" x="90" y="251.424" style="fill: #1a1a1a; stroke: #1a1a1a; stroke-width: 0.8"/>
                        </g>
                    </g>
                    <g id="text_10">
                        <!-- 0.4 -->
                        <g style="fill: #1a1a1a" transform="translate(67.41625 255.983062) scale(0.12 -0.12)">
                            <use xlink:href="#DejaVuSans-30"/>
                            <use xlink:href="#DejaVuSans-2e" x="63.623047"/>
                            <use xlink:href="#DejaVuSans-34" x="95.410156"/>
                        </g>
                    </g>
                </g>
                <g id="ytick_4">
                    <g id="line2d_19">
                        <path d="M 90 184.896
L 648 184.896
" clip-path="url(#p2e626c29a4)" style="fill: none; stroke-dasharray: 2.22,0.96; stroke-dashoffset: 0; stroke: #b0b0b0; stroke-opacity: 0.7; stroke-width: 0.6"/>
                    </g>
                    <g id="line2d_20">
                        <g>
                            <use xlink:href="#m4de5e2d326" x="90" y="184.896" style="fill: #1a1a1a; stroke: #1a1a1a; stroke-width: 0.8"/>
                        </g>
                    </g>
                    <g id="text_11">
                        <!-- 0.6 -->
                        <g style="fill: #1a1a1a" transform="translate(67.41625 189.455062) scale(0.12 -0.12)">
                            <use xlink:href="#DejaVuSans-30"/>
                            <use xlink:href="#DejaVuSans-2e" x="63.623047"/>
                            <use xlink:href="#DejaVuSans-36" x="95.410156"/>
                        </g>
                    </g>
                </g>
                <g id="ytick_5">
                    <g id="line2d_21">
                        <path d="M 90 118.368
L 648 118.368
" clip-path="url(#p2e626c29a4)" style="fill: none; stroke-dasharray: 2.22,0.96; stroke-dashoffset: 0; stroke: #b0b0b0; stroke-opacity: 0.7; stroke-width: 0.6"/>
                    </g>
                    <g id="line2d_22">
                        <g>
                            <use xlink:href="#m4de5e2d326" x="90" y="118.368" style="fill: #1a1a1a; stroke: #1a1a1a; stroke-width: 0.8"/>
                        </g>
                    </g>
                    <g id="text_12">
                        <!-- 0.8 -->
                        <g style="fill: #1a1a1a" transform="translate(67.41625 122.927062) scale(0.12 -0.12)">
                            <use xlink:href="#DejaVuSans-30"/>
                            <use xlink:href="#DejaVuSans-2e" x="63.623047"/>
                            <use xlink:href="#DejaVuSans-38" x="95.410156"/>
                        </g>
                    </g>
                </g>
                <g id="ytick_6">
                    <g id="line2d_23">
                        <path d="M 90 51.84
L 648 51.84
" clip-path="url(#p2e626c29a4)" style="fill: none; stroke-dasharray: 2.22,0.96; stroke-dashoffset: 0; stroke: #b0b0b0; stroke-opacity: 0.7; stroke-width: 0.6"/>
                    </g>
                    <g id="line2d_24">
                        <g>
                            <use xlink:href="#m4de5e2d326" x="90" y="51.84" style="fill: #1a1a1a; stroke: #1a1a1a; stroke-width: 0.8"/>
                        </g>
                    </g>
                    <g id="text_13">
                        <!-- 1.0 -->
                        <g style="fill: #1a1a1a" transform="translate(67.41625 56.399062) scale(0.12 -0.12)">
                            <use xlink:href="#DejaVuSans-31"/>
                            <use xlink:href="#DejaVuSans-2e" x="63.623047"/>
                            <use xlink:href="#DejaVuSans-30" x="95.410156"/>
                        </g>
                    </g>
                </g>
                <g id="text_14">
                    <!-- Y axis -->
                    <g style="fill: #1a1a1a" transform="translate(60.920625 235.752187) rotate(-90) scale(0.12 -0.12)">
                        <defs>
                            <path id="DejaVuSans-59" d="M -13 4666
L 666 4666
L 1959 2747
L 3244 4666
L 3922 4666
L 2272 2222
L 2272 0
L 1638 0
L 1638 2222
L -13 4666
z
" transform="scale(0.015625)"/>
                        </defs>
                        <use xlink:href="#DejaVuSans-59"/>
                        <use xlink:href="#DejaVuSans-20" x="61.083984"/>
                        <use xlink:href="#DejaVuSans-61" x="92.871094"/>
                        <use xlink:href="#DejaVuSans-78" x="154.150391"/>
                        <use xlink:href="#DejaVuSans-69" x="213.330078"/>
                        <use xlink:href="#DejaVuSans-73" x="241.113281"/>
                    </g>
                </g>
            </g>
            <g id="line2d_25">
                <path d="M 90 384.48
L 648 384.48
" clip-path="url(#p2e626c29a4)" style="fill: none; stroke: #000000; stroke-width: 2; stroke-linecap: square"/>
            </g>
            <g id="line2d_26">
                <path d="M 90 384.48
L 90 51.84
" clip-path="url(#p2e626c29a4)" style="fill: none; stroke: #000000; stroke-width: 2; stroke-linecap: square"/>
            </g>
            <g id="line2d_27">
                <path d="M 90 384.48
L 95.636364 381.12
L 101.272727 377.76
L 106.909091 374.4
L 112.545455 371.04
L 118.181818 367.68
L 123.818182 364.32
L 129.454545 360.96
L 135.090909 357.6
L 140.727273 354.24
L 146.363636 350.88
L 152 347.52
L 157.636364 344.16
L 163.272727 340.8
L 168.909091 337.44
L 174.545455 334.08
L 180.181818 330.72
L 185.818182 327.36
L 191.454545 324
L 197.090909 320.64
L 202.727273 317.28
L 208.363636 313.92
L 214 310.56
L 219.636364 307.2
L 225.272727 303.84
L 230.909091 300.48
L 236.545455 297.12
L 242.181818 293.76
L 247.818182 290.4
L 253.454545 287.04
L 259.090909 283.68
L 264.727273 280.32
L 270.363636 276.96
L 276 273.6
L 281.636364 270.24
L 287.272727 266.88
L 292.909091 263.52
L 298.545455 260.16
L 304.181818 256.8
L 309.818182 253.44
L 315.454545 250.08
L 321.090909 246.72
L 326.727273 243.36
L 332.363636 240
L 338 236.64
L 343.636364 233.28
L 349.272727 229.92
L 354.909091 226.56
L 360.545455 223.2
L 366.181818 219.84
L 371.818182 216.48
L 377.454545 213.12
L 383.090909 209.76
L 388.727273 206.4
L 394.363636 203.04
L 400 199.68
L 405.636364 196.32
L 411.272727 192.96
L 416.909091 189.6
L 422.545455 186.24
L 428.181818 182.88
L 433.818182 179.52
L 439.454545 176.16
L 445.090909 172.8
L 450.727273 169.44
L 456.363636 166.08
L 462 162.72
L 467.636364 159.36
L 473.272727 156
L 478.909091 152.64
L 484.545455 149.28
L 490.181818 145.92
L 495.818182 142.56
L 501.454545 139.2
L 507.090909 135.84
L 512.727273 132.48
L 518.363636 129.12
L 524 125.76
L 529.636364 122.4
L 535.272727 119.04
L 540.909091 115.68
L 546.545455 112.32
L 552.181818 108.96
L 557.818182 105.6
L 563.454545 102.24
L 569.090909 98.88
L 574.727273 95.52
L 580.363636 92.16
L 586 88.8
L 591.636364 85.44
L 597.272727 82.08
L 602.909091 78.72
L 608.545455 75.36
L 614.181818 72
L 619.818182 68.64
L 625.454545 65.28
L 631.090909 61.92
L 636.727273 58.56
L 642.363636 55.2
L 648 51.84
" clip-path="url(#p2e626c29a4)" style="fill: none; stroke: #10a37f; stroke-width: 1.5; stroke-linecap: square"/>
            </g>
            <g id="patch_3">
                <path d="M 90 384.48
L 90 51.84
" style="fill: none; stroke: #1a1a1a; stroke-linejoin: miter; stroke-linecap: square"/>
            </g>
            <g id="patch_4">
                <path d="M 90 384.48
L 648 384.48
" style="fill: none; stroke: #1a1a1a; stroke-linejoin: miter; stroke-linecap: square"/>
            </g>
        </g>
    </g>
    <defs>
        <clipPath id="p2e626c29a4">
            <rect x="90" y="51.84" width="558" height="332.64"/>
        </clipPath>
    </defs>
</svg>
